<svg width="16" height="16" viewBox="0 0 16 16" fill="none" xmlns="http://www.w3.org/2000/svg">
<path d="M5.9532 1.98625L6.48853 3.47293C7.0832 5.12294 8.38254 6.42228 10.0326 7.01695L11.5192 7.55228C11.6532 7.60095 11.6532 7.79095 11.5192 7.83895L10.0326 8.37429C8.38254 8.96896 7.0832 10.2683 6.48853 11.9183L5.9532 13.405C5.90453 13.539 5.71453 13.539 5.66653 13.405L5.13119 11.9183C4.53652 10.2683 3.23718 8.96896 1.58717 8.37429L0.100501 7.83895C-0.0335002 7.79029 -0.0335002 7.60028 0.100501 7.55228L1.58717 7.01695C3.23718 6.42228 4.53652 5.12294 5.13119 3.47293L5.66653 1.98625C5.71453 1.85159 5.90453 1.85159 5.9532 1.98625Z" fill="white"/>
<path d="M12.6454 0.0515003L12.9167 0.804171C13.2181 1.63951 13.8761 2.29751 14.7114 2.59885L15.4641 2.87018C15.5321 2.89485 15.5321 2.99085 15.4641 3.01552L14.7114 3.28685C13.8761 3.58818 13.2181 4.24619 12.9167 5.08153L12.6454 5.8342C12.6207 5.9022 12.5247 5.9022 12.5001 5.8342L12.2287 5.08153C11.9274 4.24619 11.2694 3.58818 10.434 3.28685L9.68137 3.01552C9.61337 2.99085 9.61337 2.89485 9.68137 2.87018L10.434 2.59885C11.2694 2.29751 11.9274 1.63951 12.2287 0.804171L12.5001 0.0515003C12.5247 -0.0171668 12.6214 -0.0171668 12.6454 0.0515003Z" fill="white"/>
<path d="M12.6454 9.55637L12.9167 10.309C13.2181 11.1444 13.8761 11.8024 14.7114 12.1037L15.4641 12.3751C15.5321 12.3997 15.5321 12.4957 15.4641 12.5204L14.7114 12.7917C13.8761 13.0931 13.2181 13.7511 12.9167 14.5864L12.6454 15.3391C12.6207 15.4071 12.5247 15.4071 12.5001 15.3391L12.2287 14.5864C11.9274 13.7511 11.2694 13.0931 10.434 12.7917L9.68137 12.5204C9.61337 12.4957 9.61337 12.3997 9.68137 12.3751L10.434 12.1037C11.2694 11.8024 11.9274 11.1444 12.2287 10.309L12.5001 9.55637C12.5247 9.48837 12.6214 9.48837 12.6454 9.55637Z" fill="white"/>
</svg>
